<mxfile host="app.diagrams.net" agent="Mozilla/5.0 (X11; Linux x86_64) AppleWebKit/537.36 (KHTML, like Gecko) Chrome/130.0.0.0 Safari/537.36" version="24.8.2">
  <diagram name="PÃ¡gina-1" id="rMzMyFaY7E8rb_k4FImS">
    <mxGraphModel dx="1434" dy="754" grid="1" gridSize="10" guides="1" tooltips="1" connect="1" arrows="1" fold="1" page="1" pageScale="1" pageWidth="827" pageHeight="1169" math="0" shadow="0">
      <root>
        <mxCell id="0" />
        <mxCell id="1" parent="0" />
        <mxCell id="j5DygAkDQUOB-PTpD8sQ-6" value="" style="edgeStyle=orthogonalEdgeStyle;rounded=0;orthogonalLoop=1;jettySize=auto;html=1;fillColor=#bac8d3;strokeColor=#23445d;" edge="1" parent="1" source="j5DygAkDQUOB-PTpD8sQ-1" target="j5DygAkDQUOB-PTpD8sQ-5">
          <mxGeometry relative="1" as="geometry" />
        </mxCell>
        <mxCell id="j5DygAkDQUOB-PTpD8sQ-1" value="Broadcast to all with current time" style="rounded=1;whiteSpace=wrap;html=1;fillColor=#d5e8d4;strokeColor=#82b366;" vertex="1" parent="1">
          <mxGeometry x="300" y="140" width="120" height="60" as="geometry" />
        </mxCell>
        <mxCell id="j5DygAkDQUOB-PTpD8sQ-3" value="Datalloger" style="rounded=1;whiteSpace=wrap;html=1;fillColor=#d5e8d4;strokeColor=#82b366;" vertex="1" parent="1">
          <mxGeometry x="680" y="50" width="120" height="60" as="geometry" />
        </mxCell>
        <mxCell id="j5DygAkDQUOB-PTpD8sQ-4" value="Aquisition board" style="rounded=1;whiteSpace=wrap;html=1;fillColor=#f8cecc;strokeColor=#b85450;" vertex="1" parent="1">
          <mxGeometry x="680" y="140" width="120" height="60" as="geometry" />
        </mxCell>
        <mxCell id="j5DygAkDQUOB-PTpD8sQ-8" value="" style="edgeStyle=orthogonalEdgeStyle;rounded=0;orthogonalLoop=1;jettySize=auto;html=1;fillColor=#bac8d3;strokeColor=#23445d;" edge="1" parent="1" source="j5DygAkDQUOB-PTpD8sQ-5" target="j5DygAkDQUOB-PTpD8sQ-7">
          <mxGeometry relative="1" as="geometry" />
        </mxCell>
        <mxCell id="j5DygAkDQUOB-PTpD8sQ-5" value="Equal system time" style="whiteSpace=wrap;html=1;fillColor=#f8cecc;strokeColor=#b85450;rounded=1;" vertex="1" parent="1">
          <mxGeometry x="300" y="280" width="120" height="60" as="geometry" />
        </mxCell>
        <mxCell id="j5DygAkDQUOB-PTpD8sQ-10" value="" style="edgeStyle=orthogonalEdgeStyle;rounded=0;orthogonalLoop=1;jettySize=auto;html=1;fillColor=#bac8d3;strokeColor=#23445d;" edge="1" parent="1" source="j5DygAkDQUOB-PTpD8sQ-7" target="j5DygAkDQUOB-PTpD8sQ-9">
          <mxGeometry relative="1" as="geometry" />
        </mxCell>
        <mxCell id="j5DygAkDQUOB-PTpD8sQ-7" value="Take 5 sensor samples" style="whiteSpace=wrap;html=1;fillColor=#f8cecc;strokeColor=#b85450;rounded=1;" vertex="1" parent="1">
          <mxGeometry x="300" y="420" width="120" height="60" as="geometry" />
        </mxCell>
        <mxCell id="j5DygAkDQUOB-PTpD8sQ-11" style="edgeStyle=orthogonalEdgeStyle;rounded=0;orthogonalLoop=1;jettySize=auto;html=1;entryX=0;entryY=0.5;entryDx=0;entryDy=0;fillColor=#bac8d3;strokeColor=#23445d;" edge="1" parent="1" source="j5DygAkDQUOB-PTpD8sQ-9" target="j5DygAkDQUOB-PTpD8sQ-1">
          <mxGeometry relative="1" as="geometry">
            <Array as="points">
              <mxPoint x="160" y="170" />
            </Array>
          </mxGeometry>
        </mxCell>
        <mxCell id="j5DygAkDQUOB-PTpD8sQ-9" value="Send samples with timestamp" style="whiteSpace=wrap;html=1;fillColor=#f8cecc;strokeColor=#b85450;rounded=1;" vertex="1" parent="1">
          <mxGeometry x="100" y="280" width="120" height="60" as="geometry" />
        </mxCell>
      </root>
    </mxGraphModel>
  </diagram>
</mxfile>
